REM DIRINDEX 1\2\4,1\2\5,1\2\6,1\3\7,1\3\8,1\3\9,1\3\10
REM DIRNAME cjc058,folder01,folder02,folder03,folder04,folder05,folder06,folder07,folder08,folder09
TITLE ""
FILE "a_32.mp3" MP3
  TRACK 01 AUDIO
    TITLE "0:"
    INDEX 01 00:00:00
  TRACK 02 AUDIO
    TITLE "6:cjc058_0543"
    INDEX 01 00:00:13
  TRACK 03 AUDIO
    TITLE "0:"
    INDEX 01 00:03:72
  TRACK 04 AUDIO
    TITLE "4:cjc058_0544"
    INDEX 01 00:04:38
  TRACK 05 AUDIO
    TITLE "0:"
    INDEX 01 00:06:43
  TRACK 06 AUDIO
    TITLE "5:cjc058_0545"
    INDEX 01 00:06:71
  TRACK 07 AUDIO
    TITLE "0:"
    INDEX 01 00:09:67
  TRACK 08 AUDIO
    TITLE "4:cjc058_0546"
    INDEX 01 00:10:70
  TRACK 09 AUDIO
    TITLE "0:"
    INDEX 01 00:13:26
  TRACK 10 AUDIO
    TITLE "5:cjc058_0547"
    INDEX 01 00:13:55
  TRACK 11 AUDIO
    TITLE "0:"
    INDEX 01 00:16:02
  TRACK 12 AUDIO
    TITLE "4:cjc058_0548"
    INDEX 01 00:17:06
  TRACK 13 AUDIO
    TITLE "0:"
    INDEX 01 00:19:28
  TRACK 14 AUDIO
    TITLE "5:cjc058_0549"
    INDEX 01 00:19:58
  TRACK 15 AUDIO
    TITLE "0:"
    INDEX 01 00:21:60
  TRACK 16 AUDIO
    TITLE "4:cjc058_0550"
    INDEX 01 00:22:64
  TRACK 17 AUDIO
    TITLE "0:"
    INDEX 01 00:25:09
  TRACK 18 AUDIO
    TITLE "5:cjc058_0551"
    INDEX 01 00:25:31
  TRACK 19 AUDIO
    TITLE "0:"
    INDEX 01 00:28:35
  TRACK 20 AUDIO
    TITLE "4:cjc058_0552"
    INDEX 01 00:29:38
  TRACK 21 AUDIO
    TITLE "0:"
    INDEX 01 00:31:43
  TRACK 22 AUDIO
    TITLE "5:cjc058_0553"
    INDEX 01 00:31:71
  TRACK 23 AUDIO
    TITLE "0:"
    INDEX 01 00:33:42
  TRACK 24 AUDIO
    TITLE "4:cjc058_0554"
    INDEX 01 00:34:45
  TRACK 25 AUDIO
    TITLE "0:"
    INDEX 01 00:36:66
  TRACK 26 AUDIO
    TITLE "5:cjc058_0555"
    INDEX 01 00:37:20
  TRACK 27 AUDIO
    TITLE "0:"
    INDEX 01 00:39:51
  TRACK 28 AUDIO
    TITLE "4:cjc058_0556"
    INDEX 01 00:40:54
  TRACK 29 AUDIO
    TITLE "0:"
    INDEX 01 00:43:01
  TRACK 30 AUDIO
    TITLE "5:cjc058_0557"
    INDEX 01 00:43:31
  TRACK 31 AUDIO
    TITLE "0:"
    INDEX 01 00:46:19
  TRACK 32 AUDIO
    TITLE "4:cjc058_0558"
    INDEX 01 00:47:21
  TRACK 33 AUDIO
    TITLE "0:"
    INDEX 01 00:49:33
  TRACK 34 AUDIO
    TITLE "5:cjc058_0559"
    INDEX 01 00:49:63
  TRACK 35 AUDIO
    TITLE "0:"
    INDEX 01 00:51:67
  TRACK 36 AUDIO
    TITLE "4:cjc058_0560"
    INDEX 01 00:52:73
  TRACK 37 AUDIO
    TITLE "0:"
    INDEX 01 00:54:60
  TRACK 38 AUDIO
    TITLE "5:cjc058_0561"
    INDEX 01 00:55:12
  TRACK 39 AUDIO
    TITLE "0:"
    INDEX 01 00:58:42
  TRACK 40 AUDIO
    TITLE "4:cjc058_0562"
    INDEX 01 00:59:45
  TRACK 41 AUDIO
    TITLE "0:"
    INDEX 01 01:01:50
  TRACK 42 AUDIO
    TITLE "5:cjc058_0563"
    INDEX 01 01:02:05
  TRACK 43 AUDIO
    TITLE "0:"
    INDEX 01 01:05:68
  TRACK 44 AUDIO
    TITLE "4:cjc058_0564"
    INDEX 01 01:06:67
  TRACK 45 AUDIO
    TITLE "0:"
    INDEX 01 01:09:20
  TRACK 46 AUDIO
    TITLE "5:cjc058_0565"
    INDEX 01 01:09:50
  TRACK 47 AUDIO
    TITLE "0:"
    INDEX 01 01:12:38
  TRACK 48 AUDIO
    TITLE "4:cjc058_0566"
    INDEX 01 01:13:42
  TRACK 49 AUDIO
    TITLE "0:"
    INDEX 01 01:15:68
  TRACK 50 AUDIO
    TITLE "5:cjc058_0567"
    INDEX 01 01:16:20
  TRACK 51 AUDIO
    TITLE "0:"
    INDEX 01 01:18:72
  TRACK 52 AUDIO
    TITLE "4:cjc058_0568"
    INDEX 01 01:20:02
  TRACK 53 AUDIO
    TITLE "0:"
    INDEX 01 01:22:31
  TRACK 54 AUDIO
    TITLE "5:cjc058_0569"
    INDEX 01 01:22:60
  TRACK 55 AUDIO
    TITLE "0:"
    INDEX 01 01:25:15
  TRACK 56 AUDIO
    TITLE "4:cjc058_0570"
    INDEX 01 01:26:19
  TRACK 57 AUDIO
    TITLE "0:"
    INDEX 01 01:28:31
  TRACK 58 AUDIO
    TITLE "5:cjc058_0571"
    INDEX 01 01:28:61
  TRACK 59 AUDIO
    TITLE "0:"
    INDEX 01 01:32:66
  TRACK 60 AUDIO
    TITLE "4:cjc058_0572"
    INDEX 01 01:33:68
  TRACK 61 AUDIO
    TITLE "0:"
    INDEX 01 01:35:67
  TRACK 62 AUDIO
    TITLE "5:cjc058_0573"
    INDEX 01 01:36:21
  TRACK 63 AUDIO
    TITLE "0:"
    INDEX 01 01:38:53
